<svg width="28" height="28" viewBox="0 0 28 28" fill="none" xmlns="http://www.w3.org/2000/svg">
<g clip-path="url(#clip0_7231_642)">
<path d="M24.5 0H23.3333C23.0239 0 22.7272 0.122916 22.5084 0.341709C22.2896 0.560501 22.1667 0.857247 22.1667 1.16667C22.1667 1.47609 22.2896 1.77283 22.5084 1.99162C22.7272 2.21042 23.0239 2.33333 23.3333 2.33333H24.5C24.8094 2.33333 25.1062 2.45625 25.325 2.67504C25.5438 2.89383 25.6667 3.19058 25.6667 3.5V4.66667C25.6667 4.97609 25.7896 5.27283 26.0084 5.49162C26.2272 5.71042 26.5239 5.83333 26.8333 5.83333C27.1428 5.83333 27.4395 5.71042 27.6583 5.49162C27.8771 5.27283 28 4.97609 28 4.66667V3.5C27.9991 2.57203 27.63 1.68233 26.9739 1.02615C26.3177 0.369973 25.428 0.000926584 24.5 0ZM1.16667 5.83333C1.47609 5.83333 1.77283 5.71042 1.99162 5.49162C2.21042 5.27283 2.33333 4.97609 2.33333 4.66667V3.5C2.33333 3.19058 2.45625 2.89383 2.67504 2.67504C2.89383 2.45625 3.19058 2.33333 3.5 2.33333H4.66667C4.97609 2.33333 5.27283 2.21042 5.49162 1.99162C5.71042 1.77283 5.83333 1.47609 5.83333 1.16667C5.83333 0.857247 5.71042 0.560501 5.49162 0.341709C5.27283 0.122916 4.97609 0 4.66667 0L3.5 0C2.57203 0.000926584 1.68233 0.369973 1.02615 1.02615C0.369973 1.68233 0.000926584 2.57203 0 3.5L0 4.66667C0 4.97609 0.122916 5.27283 0.341709 5.49162C0.560501 5.71042 0.857247 5.83333 1.16667 5.83333ZM4.66667 25.6667H3.5C3.19058 25.6667 2.89383 25.5438 2.67504 25.325C2.45625 25.1062 2.33333 24.8094 2.33333 24.5V23.3333C2.33333 23.0239 2.21042 22.7272 1.99162 22.5084C1.77283 22.2896 1.47609 22.1667 1.16667 22.1667C0.857247 22.1667 0.560501 22.2896 0.341709 22.5084C0.122916 22.7272 0 23.0239 0 23.3333L0 24.5C0.000926584 25.428 0.369973 26.3177 1.02615 26.9739C1.68233 27.63 2.57203 27.9991 3.5 28H4.66667C4.97609 28 5.27283 27.8771 5.49162 27.6583C5.71042 27.4395 5.83333 27.1428 5.83333 26.8333C5.83333 26.5239 5.71042 26.2272 5.49162 26.0084C5.27283 25.7896 4.97609 25.6667 4.66667 25.6667ZM26.8333 22.1667C26.5239 22.1667 26.2272 22.2896 26.0084 22.5084C25.7896 22.7272 25.6667 23.0239 25.6667 23.3333V24.5C25.6667 24.8094 25.5438 25.1062 25.325 25.325C25.1062 25.5438 24.8094 25.6667 24.5 25.6667H23.3333C23.0239 25.6667 22.7272 25.7896 22.5084 26.0084C22.2896 26.2272 22.1667 26.5239 22.1667 26.8333C22.1667 27.1428 22.2896 27.4395 22.5084 27.6583C22.7272 27.8771 23.0239 28 23.3333 28H24.5C25.428 27.9991 26.3177 27.63 26.9739 26.9739C27.63 26.3177 27.9991 25.428 28 24.5V23.3333C28 23.0239 27.8771 22.7272 27.6583 22.5084C27.4395 22.2896 27.1428 22.1667 26.8333 22.1667ZM25.1417 20.3467C25.4916 18.2492 25.6672 16.1264 25.6667 14C25.6672 11.8697 25.4916 9.74302 25.1417 7.64167C24.9467 6.44151 24.3785 5.33334 23.5177 4.47463C22.6568 3.61592 21.5473 3.05036 20.3467 2.85833C16.1401 2.16416 11.8482 2.16416 7.64167 2.85833C6.44151 3.05328 5.33334 3.62154 4.47463 4.48235C3.61592 5.34315 3.05036 6.45271 2.85833 7.65333C2.15833 11.8594 2.15833 16.1523 2.85833 20.3583C3.05328 21.5585 3.62154 22.6667 4.48235 23.5254C5.34315 24.3841 6.45271 24.9496 7.65333 25.1417C9.75076 25.4916 11.8736 25.6672 14 25.6667C16.1303 25.6672 18.257 25.4916 20.3583 25.1417C21.5585 24.9467 22.6667 24.3785 23.5254 23.5177C24.3841 22.6568 24.9496 21.5473 25.1417 20.3467ZM19.25 5.83333C19.8269 5.83333 20.3908 6.00439 20.8704 6.32488C21.3501 6.64537 21.7239 7.10089 21.9446 7.63384C22.1654 8.16679 22.2232 8.75323 22.1106 9.31901C21.9981 9.88479 21.7203 10.4045 21.3124 10.8124C20.9045 11.2203 20.3848 11.4981 19.819 11.6106C19.2532 11.7232 18.6668 11.6654 18.1338 11.4446C17.6009 11.2239 17.1454 10.8501 16.8249 10.3704C16.5044 9.89077 16.3333 9.32686 16.3333 8.75C16.334 7.97664 16.6414 7.23513 17.1883 6.68829C17.7351 6.14144 18.4766 5.83395 19.25 5.83333ZM19.985 22.8433C16.0257 23.4967 11.986 23.4967 8.02667 22.8433C7.45585 22.7466 6.91809 22.5093 6.46186 22.1529C6.00564 21.7965 5.6453 21.3321 5.41333 20.8017L9.00667 15.4117C9.3009 14.9769 9.69723 14.6208 10.161 14.3747C10.6247 14.1286 11.1417 13.9999 11.6667 13.9999C12.1917 13.9999 12.7086 14.1286 13.1724 14.3747C13.6361 14.6208 14.0324 14.9769 14.3267 15.4117L17.6983 20.475C17.7807 20.6063 17.8886 20.7198 18.0155 20.8089C18.1424 20.8979 18.2859 20.9606 18.4374 20.9933C18.589 21.026 18.7455 21.0281 18.8979 20.9994C19.0502 20.9707 19.1953 20.9117 19.3245 20.8261C19.4538 20.7405 19.5646 20.6298 19.6504 20.5007C19.7362 20.3716 19.7953 20.2266 19.8242 20.0743C19.8532 19.922 19.8513 19.7655 19.8188 19.6139C19.7863 19.4623 19.7238 19.3187 19.635 19.1917L16.2633 14.1283C16.2361 14.0829 16.2049 14.0399 16.17 14H16.3333C16.8587 13.998 17.3764 14.1259 17.8404 14.3722C18.3045 14.6184 18.7005 14.9755 18.9933 15.4117L22.5867 20.8133C22.3553 21.3409 21.9964 21.8026 21.5422 22.1569C21.0881 22.5113 20.5529 22.7472 19.985 22.8433Z" fill="#E8F9FF"/>
<path d="M19.2513 9.33341C19.5735 9.33341 19.8346 9.07225 19.8346 8.75008C19.8346 8.42792 19.5735 8.16675 19.2513 8.16675C18.9291 8.16675 18.668 8.42792 18.668 8.75008C18.668 9.07225 18.9291 9.33341 19.2513 9.33341Z" fill="#E8F9FF"/>
</g>
<defs>
<clipPath id="clip0_7231_642">
<rect width="28" height="28" fill="white"/>
</clipPath>
</defs>
</svg>
