<svg width="28" height="28" viewBox="0 0 28 28" fill="none" xmlns="http://www.w3.org/2000/svg">
<path d="M22.6068 11.2075C22.5449 11.0703 22.4445 10.9539 22.3178 10.8725C22.191 10.7912 22.0434 10.7483 21.8928 10.7492H16.8923L21.7419 1.85133C21.8062 1.73242 21.8385 1.59889 21.8358 1.46374C21.8331 1.3286 21.7955 1.19646 21.7265 1.08021C21.6576 0.963534 21.5593 0.866998 21.4413 0.800267C21.3234 0.733536 21.19 0.698951 21.0545 0.699973H10.3641C10.0205 0.699973 9.71841 0.923973 9.61929 1.25213L5.35769 15.162C5.32241 15.2789 5.31489 15.4024 5.33575 15.5227C5.3566 15.643 5.40524 15.7568 5.47781 15.855C5.55074 15.9535 5.64574 16.0336 5.75519 16.0888C5.86465 16.1439 5.98551 16.1727 6.10809 16.1728H11.3438L8.03561 26.2738C7.97919 26.4447 7.98363 26.6299 8.04819 26.798C8.11275 26.966 8.23345 27.1066 8.38981 27.1958C8.50965 27.2636 8.64517 27.3 8.77537 27.3C8.99433 27.3 9.21301 27.2062 9.36421 27.0343L22.4817 12.0515C22.6849 11.8224 22.7317 11.4943 22.6068 11.2129V11.2075Z" fill="#E8F9FF"/>
</svg>
