<svg width="28" height="28" viewBox="0 0 28 28" fill="none" xmlns="http://www.w3.org/2000/svg">
<path d="M14 0C9.08004 0 4.97656 3.9632 4.97656 9.02344C4.97656 10.9485 5.55505 12.6652 6.66526 14.2738L13.3095 24.6414C13.6318 25.1454 14.3689 25.1444 14.6905 24.6414L21.3636 14.2385C22.4499 12.7028 23.0234 10.8996 23.0234 9.02344C23.0234 4.04791 18.9755 0 14 0ZM14 13.125C11.7385 13.125 9.89844 11.2849 9.89844 9.02344C9.89844 6.76195 11.7385 4.92188 14 4.92188C16.2615 4.92188 18.1016 6.76195 18.1016 9.02344C18.1016 11.2849 16.2615 13.125 14 13.125Z" fill="#E8F9FF"/>
<path d="M20.4129 18.8506L16.2823 25.3085C15.2131 26.9755 12.781 26.97 11.7169 25.3101L7.57958 18.8523C3.93936 19.6939 1.69531 21.2357 1.69531 23.0782C1.69531 26.2753 8.03513 28.0001 14 28.0001C19.9649 28.0001 26.3047 26.2753 26.3047 23.0782C26.3047 21.2344 24.0575 19.6918 20.4129 18.8506Z" fill="#E8F9FF"/>
</svg>
