<svg width="28" height="28" viewBox="0 0 28 28" fill="none" xmlns="http://www.w3.org/2000/svg">
<path d="M20.1891 7.86518H7.81195C6.19867 7.86518 4.89137 9.17275 4.89137 10.7858V19.0731C4.89137 20.6861 6.19867 21.9937 7.81195 21.9937H10.0407V25.0327C10.0407 25.0518 10.0623 25.063 10.0779 25.0518L14.6408 22.0271L15.7851 22.0057H18.9958L20.1891 21.9937C21.8021 21.9937 23.1097 20.6861 23.1097 19.0731V10.7858C23.1097 9.17275 21.8021 7.86518 20.1891 7.86518ZM9.61664 12.2555C9.61664 11.4483 10.271 10.7937 11.0784 10.7937C11.8856 10.7937 12.54 11.4483 12.54 12.2555C12.54 13.0629 11.8856 13.7173 11.0784 13.7173C10.271 13.7173 9.61664 13.0629 9.61664 12.2555ZM13.9331 19.5601C12.08 19.5601 10.5493 18.2615 10.3153 16.5796H17.5512C17.3169 18.2615 15.7865 19.5601 13.9331 19.5601ZM16.9409 13.7173C16.1337 13.7173 15.4791 13.0629 15.4791 12.2555C15.4791 11.4483 16.1337 10.7937 16.9409 10.7937C17.7484 10.7937 18.4027 11.4483 18.4027 12.2555C18.4027 13.0629 17.7484 13.7173 16.9409 13.7173ZM23.7132 17.6217V12.3903H24.4372C24.9674 12.3903 25.3973 12.8201 25.3973 13.3503V16.6619C25.3973 17.1921 24.9674 17.622 24.4372 17.622H23.7132V17.6217ZM2.60352 16.6619V13.3503C2.60352 12.8201 3.03336 12.3903 3.56355 12.3903H4.28762V17.622H3.56355C3.03336 17.6217 2.60352 17.1919 2.60352 16.6619ZM15.3534 4.09037C15.3534 4.73103 14.9271 5.27381 14.3433 5.45018V6.67764H13.523V5.45018C12.9392 5.27381 12.5129 4.73103 12.5129 4.09037C12.5129 3.30752 13.15 2.67041 13.9331 2.67041C14.7163 2.67041 15.3534 3.30752 15.3534 4.09037Z" fill="#E8F9FF"/>
</svg>
