<svg width="28" height="28" viewBox="0 0 28 28" fill="none" xmlns="http://www.w3.org/2000/svg">
<path d="M22.0592 16.8219C21.87 16.7336 21.6534 16.7241 21.4572 16.7955C21.2609 16.8669 21.1011 17.0133 21.0127 17.2025C19.744 19.9185 16.9912 21.6737 13.9996 21.6737C11.008 21.6737 8.25524 19.9185 6.98649 17.2025C6.94376 17.1072 6.88251 17.0214 6.80631 16.9501C6.73012 16.8787 6.64049 16.8232 6.54264 16.7868C6.4448 16.7503 6.34069 16.7337 6.23637 16.7379C6.13205 16.7421 6.0296 16.767 5.93499 16.8112C5.84038 16.8553 5.7555 16.9178 5.68527 16.9951C5.61504 17.0723 5.56087 17.1628 5.52592 17.2611C5.49096 17.3595 5.47592 17.4639 5.48166 17.5681C5.4874 17.6724 5.51382 17.7744 5.55936 17.8684C6.97249 20.8959 9.92386 22.9075 13.2121 23.1919V25.4625H10.9187C10.7099 25.4625 10.5096 25.5455 10.3619 25.6931C10.2142 25.8408 10.1312 26.0411 10.1312 26.25C10.1312 26.4588 10.2142 26.6592 10.3619 26.8068C10.5096 26.9545 10.7099 27.0375 10.9187 27.0375H17.0805C17.2893 27.0375 17.4896 26.9545 17.6373 26.8068C17.785 26.6592 17.868 26.4588 17.868 26.25C17.868 26.0411 17.785 25.8408 17.6373 25.6931C17.4896 25.5455 17.2893 25.4625 17.0805 25.4625H14.7871V23.1919C18.0754 22.9084 21.0259 20.8959 22.4399 17.8684C22.5281 17.6791 22.5376 17.4625 22.4663 17.2663C22.3949 17.07 22.2485 16.9102 22.0592 16.8219Z" fill="#E8F9FF"/>
<path d="M14 1.75C12.5496 1.75 11.1586 2.32617 10.133 3.35176C9.10742 4.37735 8.53125 5.76835 8.53125 7.21875V13.9274C8.53125 15.3778 9.10742 16.7688 10.133 17.7944C11.1586 18.82 12.5496 19.3961 14 19.3961C15.4504 19.3961 16.8414 18.82 17.867 17.7944C18.8926 16.7688 19.4688 15.3778 19.4688 13.9274V7.21875C19.4688 5.76835 18.8926 4.37735 17.867 3.35176C16.8414 2.32617 15.4504 1.75 14 1.75ZM14 5.6C13.1075 5.6 12.3812 6.32625 12.3812 7.21875C12.3812 7.42761 12.2983 7.62791 12.1506 7.7756C12.0029 7.92328 11.8026 8.00625 11.5938 8.00625C11.3849 8.00625 11.1846 7.92328 11.0369 7.7756C10.8892 7.62791 10.8063 7.42761 10.8063 7.21875C10.8072 6.372 11.144 5.56019 11.7427 4.96145C12.3414 4.36271 13.1532 4.02593 14 4.025C14.2089 4.025 14.4092 4.10797 14.5568 4.25565C14.7045 4.40334 14.7875 4.60364 14.7875 4.8125C14.7875 5.02136 14.7045 5.22166 14.5568 5.36935C14.4092 5.51703 14.2089 5.6 14 5.6Z" fill="#E8F9FF"/>
</svg>
