<svg width="24" height="25" viewBox="0 0 24 25" fill="none" xmlns="http://www.w3.org/2000/svg">
<g clip-path="url(#clip0_7231_1033)">
<path d="M12 0.5C5.38317 0.5 0 5.88317 0 12.5C0 19.1168 5.38317 24.5 12 24.5C18.6168 24.5 24 19.1168 24 12.5C24 5.88317 18.6168 0.5 12 0.5ZM12 23.375C6.00352 23.375 1.125 18.4965 1.125 12.5C1.125 6.50352 6.00352 1.625 12 1.625C17.9965 1.625 22.875 6.50352 22.875 12.5C22.875 18.4965 17.9965 23.375 12 23.375ZM17.6396 7.55469H6.36033C5.60592 7.55469 4.99214 8.16847 4.99214 8.92288V16.0772C4.99214 16.8316 5.60588 17.4454 6.36033 17.4454H17.6396C18.394 17.4454 19.0078 16.8316 19.0078 16.0772V8.92288C19.0078 8.16847 18.394 7.55469 17.6396 7.55469ZM16.7917 8.67969L12 12.4849L7.20825 8.67969H16.7917ZM17.6396 16.3203H6.36033C6.29585 16.3202 6.23404 16.2946 6.18845 16.249C6.14286 16.2034 6.11721 16.1416 6.11714 16.0771V9.24978L11.6502 13.6436C11.7526 13.7249 11.8763 13.7656 12 13.7656C12.1236 13.7656 12.2474 13.725 12.3497 13.6436L17.8828 9.24978V16.0771C17.8827 16.1416 17.8571 16.2034 17.8115 16.249C17.7659 16.2946 17.7041 16.3202 17.6396 16.3203Z" fill="#FDF4E7"/>
</g>
<defs>
<clipPath id="clip0_7231_1033">
<rect width="24" height="24" fill="white" transform="translate(0 0.5)"/>
</clipPath>
</defs>
</svg>
