<svg width="20" height="20" viewBox="0 0 20 20" fill="none" xmlns="http://www.w3.org/2000/svg">
<path d="M6.50521 1.66797H13.5052C16.1719 1.66797 18.3385 3.83464 18.3385 6.5013V13.5013C18.3385 14.7832 17.8293 16.0126 16.9229 16.919C16.0165 17.8254 14.7871 18.3346 13.5052 18.3346H6.50521C3.83854 18.3346 1.67188 16.168 1.67188 13.5013V6.5013C1.67188 5.21942 2.1811 3.99005 3.08753 3.08362C3.99395 2.17719 5.22333 1.66797 6.50521 1.66797ZM6.33854 3.33464C5.54289 3.33464 4.77983 3.65071 4.21722 4.21332C3.65461 4.77592 3.33854 5.53899 3.33854 6.33464V13.668C3.33854 15.3263 4.68021 16.668 6.33854 16.668H13.6719C14.4675 16.668 15.2306 16.3519 15.7932 15.7893C16.3558 15.2267 16.6719 14.4636 16.6719 13.668V6.33464C16.6719 4.6763 15.3302 3.33464 13.6719 3.33464H6.33854ZM14.3802 4.58464C14.6565 4.58464 14.9214 4.69438 15.1168 4.88973C15.3121 5.08508 15.4219 5.35003 15.4219 5.6263C15.4219 5.90257 15.3121 6.16752 15.1168 6.36287C14.9214 6.55822 14.6565 6.66797 14.3802 6.66797C14.1039 6.66797 13.839 6.55822 13.6436 6.36287C13.4483 6.16752 13.3385 5.90257 13.3385 5.6263C13.3385 5.35003 13.4483 5.08508 13.6436 4.88973C13.839 4.69438 14.1039 4.58464 14.3802 4.58464ZM10.0052 5.83464C11.1103 5.83464 12.1701 6.27362 12.9515 7.05502C13.7329 7.83643 14.1719 8.89623 14.1719 10.0013C14.1719 11.1064 13.7329 12.1662 12.9515 12.9476C12.1701 13.729 11.1103 14.168 10.0052 14.168C8.90014 14.168 7.84033 13.729 7.05893 12.9476C6.27753 12.1662 5.83854 11.1064 5.83854 10.0013C5.83854 8.89623 6.27753 7.83643 7.05893 7.05502C7.84033 6.27362 8.90014 5.83464 10.0052 5.83464ZM10.0052 7.5013C9.34217 7.5013 8.70628 7.76469 8.23744 8.23353C7.7686 8.70238 7.50521 9.33826 7.50521 10.0013C7.50521 10.6643 7.7686 11.3002 8.23744 11.7691C8.70628 12.2379 9.34217 12.5013 10.0052 12.5013C10.6682 12.5013 11.3041 12.2379 11.773 11.7691C12.2418 11.3002 12.5052 10.6643 12.5052 10.0013C12.5052 9.33826 12.2418 8.70238 11.773 8.23353C11.3041 7.76469 10.6682 7.5013 10.0052 7.5013Z" fill="url(#paint0_linear_7231_1040)"/>
<defs>
<linearGradient id="paint0_linear_7231_1040" x1="10.0052" y1="1.66797" x2="10.0052" y2="18.3346" gradientUnits="userSpaceOnUse">
<stop stop-color="#007AFF"/>
<stop offset="1" stop-color="#0053AD"/>
</linearGradient>
</defs>
</svg>
